.
 
http://www.scenetime.com    -   SceneTime [ We been having it ] !!!


How come you press harder on a remote control when you know the battery is dead? so you better seed to get speed ;)

        Seed back for speed


...................................NFO:.................................................[pre][img]http://www.shotpix.com/images/57335924530053976906.jpg[/img]   
            
*******************************************************************************
                     Slices.of.Life.2010.DVDRip.XviD-PRESTiGE
*******************************************************************************

-------------------------------------------------------------------------------
                              General Information
-------------------------------------------------------------------------------

TiTLE............: Slices.of.Life.2010.DVDRip.XviD-PRESTiGE

iMDB.............: http://www.imdb.com/title/tt1584730/

GENRE............: Horror | Sci-Fi | Thriller  

LANGUAGE.........: English

FORMAT...........: AVi

SOURCE...........: DVDR-STOCK MANY THANKS!!!

FiLE SiZE........: 700MB

SAMPLE iNCLUDED..: YES

SUBS.............: N/A

DURATiON.........: 1h 47mn

ENCODED by.......: akosipalos



ViDEO iNFO:

ID                               : 0
Format                           : MPEG-4 Visual
Format profile                   : Advanced Simple@L5
Format settings, BVOP            : Yes
Format settings, QPel            : No
Format settings, GMC             : No warppoints
Format settings, Matrix          : Custom
Codec ID                         : XVID
Codec ID/Hint                    : XviD
Duration                         : 1h 47mn
Bit rate                         : 774 Kbps
Width                            : 720 pixels
Height                           : 384 pixels
Display aspect ratio             : 1.875
Frame rate                       : 23.976 fps
Color space                      : YUV
Chroma subsampling               : 4:2:0
Bit depth                        : 8 bits
Scan type                        : Progressive
Bits/(Pixel*Frame)               : 0.117
Stream size                      : 596 MiB (85%)
Writing library                  : XviD 58


AUDiO iNFO:

ID                               : 1
Format                           : MPEG Audio
Format version                   : Version 1
Format profile                   : Layer 3
Mode                             : Joint stereo
Mode extension                   : MS Stereo
Codec ID                         : 55
Codec ID/Hint                    : MP3
Duration                         : 1h 47mn
Bit rate mode                    : Constant
Bit rate                         : 128 Kbps
Channel(s)                       : 2 channels
Sampling rate                    : 48.0 KHz
Stream size                      : 98.5 MiB (14%)
Alignment                        : Aligned on interleaves
Interleave, duration             : 83 ms (2.00 video frames)
Interleave, preload duration     : 504 ms
Writing library                  : LAME3.98r
Encoding settings                : -m j -V 4 -q 2 -lowpass 17 -b 128
Language                         : English



-------------------------------------------------------------------------------
                                 PLOT:
-------------------------------------------------------------------------------


Sexual Parasites, Disembowelment, Zombies, Serial Killers, Demon Children, Violent Vixens, Rabid Office Workers and Angry Embryos all spring to life from the flesh covered sketch books featured in Anthony G. Sumner s (Gallery of Fear) SLICES OF LIFE.


-------------------------------------------------------------------------------
                                 CAST:
-------------------------------------------------------------------------------


Kaylee Williams ... Mira (segment "Sketcher"
Jack Guasta ... William Robert Moss (segment "W.O.R.M"
Toya Turner ... Vonda (segment "Amber Alert"
Deneen Melody ... Susan Ballard (segment "Pink Snapper"
Marv Blauvelt ... Tiny (segment "Sketcher"
Thurston Hill ... Lamont (segment "Amber Alert"
Galen Schloming ... Eric Ballard (segment "Pink Snapper"


-------------------------------------------------------------------------------
                               SCREENS:
-------------------------------------------------------------------------------


[img]http://i824.photobucket.com/albums/zz161/akosipalos/sol1.png[/img]

[img]http://i824.photobucket.com/albums/zz161/akosipalos/sol2.png[/img]

[img]http://i824.photobucket.com/albums/zz161/akosipalos/sol3.png[/img]

[img]http://i824.photobucket.com/albums/zz161/akosipalos/sol4.png[/img]


-------------------------------------------------------------------------------
                             Release Notes
-------------------------------------------------------------------------------


PRESTiGE - IS LOOKING FOR?: CAMMER'S, AUDIO SUPPLIERS, SYNCER'S, RETAIL
SUPPLIER'S, SILVER'S, SCREENER'S, LINE CAPPER'S

ENCODER'S - ANYTHING AT ALL EMAIL US AT..... prestige@hushmail.me

** ** ** ** ** ** ** ** **

PRESTiGE is the level of respect at which one is regarded by others....RIzE Above Or Sink Below...


-------------------------------------------------------------------------------
                                 GREETZ:
-------------------------------------------------------------------------------


Twisted ,bigguy, Selina, 6of1, CTFX, HiTM4N, bedsy, mtyy, paranoid53, PA4U2C, phules, tac, BMB, Flawl3ss, smelise, fifer, akosipalos, DiLLoN, IMAGINE,"the squad" , floridajoe and To All Encoders Past And Present...


-------------------------------------------------------------------------------
Generated with Cool NFO Creator - http://fly.to/coolbeans
-------------------------------------------------------------------------------
[/pre]